<?xml version="1.0" encoding="UTF-8" standalone="no"?>
<!-- Created with Inkscape (http://www.inkscape.org/) -->

<svg
   width="210mm"
   height="297mm"
   viewBox="0 0 210 297"
   version="1.1"
   id="svg1"
   xml:space="preserve"
   inkscape:version="1.4.2 (f4327f4, 2025-05-13)"
   sodipodi:docname="eel.svg"
   inkscape:export-filename="eel.png"
   inkscape:export-xdpi="96"
   inkscape:export-ydpi="96"
   xmlns:inkscape="http://www.inkscape.org/namespaces/inkscape"
   xmlns:sodipodi="http://sodipodi.sourceforge.net/DTD/sodipodi-0.dtd"
   xmlns:xlink="http://www.w3.org/1999/xlink"
   xmlns="http://www.w3.org/2000/svg"
   xmlns:svg="http://www.w3.org/2000/svg"><sodipodi:namedview
     id="namedview1"
     pagecolor="#ffffff"
     bordercolor="#666666"
     borderopacity="1.0"
     inkscape:showpageshadow="2"
     inkscape:pageopacity="0.0"
     inkscape:pagecheckerboard="0"
     inkscape:deskcolor="#d1d1d1"
     inkscape:document-units="mm"
     inkscape:zoom="0.73139029"
     inkscape:cx="310.36781"
     inkscape:cy="455.9809"
     inkscape:window-width="1920"
     inkscape:window-height="1017"
     inkscape:window-x="-8"
     inkscape:window-y="-8"
     inkscape:window-maximized="1"
     inkscape:current-layer="layer1" /><defs
     id="defs1"><linearGradient
       id="linearGradient23"
       inkscape:collect="always"><stop
         style="stop-color:#939512;stop-opacity:1;"
         offset="0"
         id="stop23" /><stop
         style="stop-color:#000000;stop-opacity:1;"
         offset="1"
         id="stop24" /></linearGradient><linearGradient
       inkscape:collect="always"
       xlink:href="#linearGradient23"
       id="linearGradient24"
       x1="80.534401"
       y1="149.37544"
       x2="75.24469"
       y2="129.38855"
       gradientUnits="userSpaceOnUse" /></defs><g
     inkscape:label="Layer 1"
     inkscape:groupmode="layer"
     id="layer1"><g
       id="laughing-eel"><path
         style="fill:#dde01b;fill-opacity:1;stroke:#000000;stroke-width:0.165;stroke-linecap:butt;stroke-linejoin:miter;stroke-opacity:1;stroke-dasharray:none"
         d="m 101.24589,103.59729 4.79324,-1.58268 9.69559,2.78061 34.2912,18.24394 0.28285,47.34695 -57.51888,-0.18087 c -1.92727,-1.66312 -7.022813,-4.74064 -11.893558,-5.31102 -2.241151,0.0768 -8.086684,0.99755 -9.7843,-0.7674 z"
         id="path5"
         sodipodi:nodetypes="ccccccccc" /><path
         style="fill:#e8eb59;fill-opacity:1;stroke:#000000;stroke-width:0.165;stroke-linecap:butt;stroke-linejoin:miter;stroke-opacity:1;stroke-dasharray:none"
         d="m 52.642215,130.45732 c -0.803805,-2.98432 0.01472,-8.04629 0.474137,-8.86251 1.759024,-2.75579 9.568567,-4.60661 14.414498,-6.10171 2.758766,-1.49898 4.301963,-3.72784 7.034463,-5.11597 4.469515,-1.83083 9.021005,-3.54689 13.790519,-4.95771 3.138398,-0.82917 6.431109,-1.52686 9.870859,-1.69306 4.573299,0.0978 5.014529,-0.26345 10.935399,2.81379 4.34919,2.90555 6.02607,5.81637 8.1216,9.20875 1.47923,2.48687 2.84502,4.77612 4.47648,8.76111 1.09051,3.17928 2.25073,6.93834 1.91849,12.85388 -0.32955,6.31564 -2.68536,11.56082 -6.90656,16.75481 -3.03177,1.87736 -7.96357,2.82301 -12.40624,3.06958 -3.63742,0.78175 -3.8163,0.22409 -9.433518,1.38122 -3.023229,0.86699 -6.86052,1.44834 -11.797773,2.4558 -3.905368,1.40494 -8.026957,2.50717 -12.534135,3.06958 -4.51911,0.46237 -9.038219,0.10676 -13.557329,-0.3837 -2.207403,-0.94935 -4.394282,-1.92333 -6.01127,-3.58118 -0.922208,-2.19224 -1.080066,-4.31499 0.639498,-6.26707 0.528573,-0.36112 1.394716,-0.65472 2.526012,-0.89529 1.627377,-0.0653 1.713137,1.30064 3.45328,1.37491 2.767438,0.34503 5.793,0.0447 8.793081,-0.19184 3.847639,-0.2404 7.695277,-0.93731 11.542916,-2.14232 3.645906,-0.97248 7.838257,-2.45244 12.087429,-4.74003 3.664606,0.13763 7.553676,-0.7557 10.861869,-1.92492 -2.289333,-3.18131 -6.618678,-3.79395 -10.008857,-5.15315 -5.857963,-1.85338 -12.292961,-2.14638 -18.53443,-3.73655 -3.162425,-1.09238 -6.613638,-3.35211 -8.92098,-4.38055 -1.399017,-0.81159 -9.988257,-1.27354 -10.829438,-1.61587 z"
         id="path1"
         sodipodi:nodetypes="cccccccccccccccccccccccccccc" /><ellipse
         style="fill:#ffffff;fill-opacity:1;stroke:#000000;stroke-width:0.361;stroke-dasharray:none;stroke-opacity:1"
         id="path2"
         cx="79.240112"
         cy="123.4421"
         rx="6.339808"
         ry="7.3666067" /><ellipse
         style="fill:#000000;fill-opacity:1;stroke:none;stroke-width:0.663095"
         id="path3"
         cx="79.233627"
         cy="123.51078"
         rx="2.3821251"
         ry="2.7258546" /><path
         style="fill:#c9cc19;stroke:#000000;stroke-width:0.165;stroke-linecap:butt;stroke-linejoin:miter;stroke-opacity:1;fill-opacity:1;stroke-dasharray:none"
         d="m 106.08435,102.10505 c -0.47837,-0.93335 -0.0439,-3.062749 0.59915,-4.04712 1.70224,-2.287064 3.85571,-3.828849 6.09329,-5.35848 2.94592,-1.659306 5.83588,-2.195746 8.50122,-2.170523 15.58612,2.431257 28.22021,12.291393 28.84988,12.570953 -0.0674,10.93316 -0.0603,15.43483 -0.0904,23.15225 l -31.92478,-18.72077 c -3.39067,-2.42755 -7.693,-3.94344 -12.02836,-5.42631 z"
         id="path4"
         sodipodi:nodetypes="cccccccc" /><path
         d="m 52.650586,130.46112 c 0.150373,0.86121 15.394739,8.16022 16.942755,11.11082 1.61586,3.07991 -1.534345,3.97577 -5.475091,7.57384 -3.110009,2.53891 -6.985403,3.62534 -8.815967,4.00654 0.937783,0.45472 0.740923,0.85975 2.356713,1.19403 2.767438,0.34503 5.793,0.0447 8.79308,-0.19184 3.847639,-0.2404 7.695277,-0.93731 11.542916,-2.14232 3.645906,-0.97248 7.838257,-2.45244 12.087429,-4.74003 1.84204,-0.90955 2.053077,-1.99033 2.179771,-2.91974 0.06082,-1.00702 0.472672,-3.05493 -1.326759,-4.15833 -5.857963,-1.85338 -12.292961,-2.14638 -18.53443,-3.73655 -3.162425,-1.09238 -6.613638,-3.35211 -8.920979,-4.38055 -1.399017,-0.81159 -9.988257,-1.27354 -10.829438,-1.61587 z"
         style="fill:url(#linearGradient24);fill-opacity:1;stroke:#000000;stroke-width:0.165;stroke-linecap:butt;stroke-linejoin:miter;stroke-opacity:1;stroke-dasharray:none"
         id="path1-4"
         sodipodi:nodetypes="csccccccccccc" /><path
         style="fill:#ffffff;fill-opacity:1;stroke:#000000;stroke-width:0.1;stroke-linecap:butt;stroke-linejoin:miter;stroke-dasharray:none;stroke-opacity:1"
         d="m 54.892796,153.04754 0.391693,-1.68667 0.311755,1.74263 -0.367712,0.0879 z"
         id="path6"
         sodipodi:nodetypes="ccccc" /><path
         style="fill:#ffffff;fill-opacity:1;stroke:#000000;stroke-width:0.1;stroke-linecap:butt;stroke-linejoin:miter;stroke-dasharray:none;stroke-opacity:1"
         d="m 59.470308,154.11555 0.391693,-1.68667 0.311755,1.74263 -0.367712,0.0879 z"
         id="path6-3"
         sodipodi:nodetypes="ccccc" /><path
         style="fill:#ffffff;fill-opacity:1;stroke:#000000;stroke-width:0.103399;stroke-linecap:butt;stroke-linejoin:miter;stroke-dasharray:none;stroke-opacity:1"
         d="m 61.355766,154.125 0.390134,-1.81047 0.310513,1.87054 -0.366248,0.0943 z"
         id="path6-0"
         sodipodi:nodetypes="ccccc" /><path
         style="fill:#ffffff;fill-opacity:1;stroke:#000000;stroke-width:0.1;stroke-linecap:butt;stroke-linejoin:miter;stroke-dasharray:none;stroke-opacity:1"
         d="m 64.395237,154.021 0.391693,-1.68667 0.311755,1.74263 -0.367712,0.0879 z"
         id="path6-0-3"
         sodipodi:nodetypes="ccccc" /><path
         style="fill:#ffffff;fill-opacity:1;stroke:#000000;stroke-width:0.1;stroke-linecap:butt;stroke-linejoin:miter;stroke-dasharray:none;stroke-opacity:1"
         d="m 56.791295,131.09078 -0.39169,1.68667 -0.31176,-1.74263 0.36772,-0.0879 z"
         id="path6-8"
         sodipodi:nodetypes="ccccc" /><path
         style="fill:#ffffff;fill-opacity:1;stroke:#000000;stroke-width:0.1;stroke-linecap:butt;stroke-linejoin:miter;stroke-dasharray:none;stroke-opacity:1"
         d="m 58.804058,131.31904 -0.39169,1.68667 -0.31176,-1.74263 0.36772,-0.0879 z"
         id="path6-05"
         sodipodi:nodetypes="ccccc" /><path
         style="fill:#ffffff;fill-opacity:1;stroke:#000000;stroke-width:0.116336;stroke-linecap:butt;stroke-linejoin:miter;stroke-dasharray:none;stroke-opacity:1"
         d="m 60.997708,131.72803 -0.384193,2.3273 -0.305793,-2.40451 0.360682,-0.12129 z"
         id="path6-05-7"
         sodipodi:nodetypes="ccccc" /><path
         style="fill:#ffffff;fill-opacity:1;stroke:#000000;stroke-width:0.124461;stroke-linecap:butt;stroke-linejoin:miter;stroke-dasharray:none;stroke-opacity:1"
         d="m 64.000265,132.50662 -0.380464,2.68981 -0.302826,-2.77906 0.357182,-0.14018 z"
         id="path6-05-3"
         sodipodi:nodetypes="ccccc" /><path
         style="fill:none;stroke:#000000;stroke-width:0.065;stroke-linecap:butt;stroke-linejoin:miter;stroke-opacity:1;stroke-dasharray:none"
         d="m 92.857718,142.07887 c 0.09564,2.6e-4 0.177978,0.0575 0.271315,0.0678 0.03745,0.004 0.07537,0 0.113048,0 0.03768,0 0.07537,0 0.113049,0 0.04522,0 0.09066,0.004 0.135657,0 0.03092,-0.003 0.05968,-0.0182 0.09044,-0.0226 0.02238,-0.003 0.04522,0 0.06783,0 0.03768,0 0.07536,0 0.113049,0 0.07536,0 0.15073,0 0.226094,0 0.02262,0 0.04522,0 0.06783,0 0.03014,0 0.06101,0.007 0.09044,0 0.03962,-0.009 0.07402,-0.0341 0.113048,-0.0452 0.0145,-0.004 0.03015,0 0.04522,0 0.03014,0 0.06029,0 0.09044,0 0.06783,0 0.13634,0.01 0.203486,0 0.04018,-0.006 0.07325,-0.0373 0.113049,-0.0452 0.04434,-0.009 0.09044,0 0.135657,0 0.03768,0 0.07537,0 0.113048,0 0.01508,0 0.0306,-0.004 0.04522,0 0.01635,0.004 0.0286,0.0198 0.04522,0.0226 0.02974,0.005 0.06029,0 0.09044,0 0.01508,0 0.03092,0.005 0.04522,0 0.01011,-0.003 0.01228,-0.02 0.0226,-0.0226 0.02925,-0.007 0.06029,0 0.09044,0 0.01894,0 0.09585,-0.004 0.113048,0 0.08039,0.0201 0.0176,0.0176 0.06783,0.0678 0.0053,0.005 0.01728,-0.005 0.02259,0 0.01191,0.0119 0.01069,0.0333 0.02262,0.0452 0.01921,0.0192 0.04609,0.0289 0.06783,0.0452 0.01707,0.0128 0.02614,0.0357 0.04522,0.0452 0.0067,0.003 0.01508,0 0.02262,0 0.01508,0.008 0.0312,0.0133 0.04522,0.0226 0.0089,0.006 0.01249,0.0192 0.02262,0.0226 0.06201,0.0207 0.03665,-0.0312 0.09044,0.0226"
         id="path7" /><path
         style="fill:none;stroke:#000000;stroke-width:0.065;stroke-linecap:butt;stroke-linejoin:miter;stroke-opacity:1;stroke-dasharray:none"
         d="m 92.902938,143.45805 c 1.126617,0 -0.07821,0.007 3.00708,-0.38436 0.05981,-0.008 0.120584,0 0.180877,0"
         id="path8" /><path
         style="fill:none;stroke:#000000;stroke-width:0.065;stroke-linecap:butt;stroke-linejoin:miter;stroke-opacity:1;stroke-dasharray:none"
         d="m 92.948156,144.54332 c 0.678291,-0.11305 1.357349,-0.22156 2.034868,-0.33915 0.485468,-0.0842 0.498377,-0.13566 0.791337,-0.13566"
         id="path9" /><path
         style="fill:none;stroke:#000000;stroke-width:0.065;stroke-linecap:butt;stroke-linejoin:miter;stroke-opacity:1;stroke-dasharray:none"
         d="m 92.857718,145.19899 c 2.475685,0.0527 1.382538,0.14455 2.758374,-0.0452 0.02238,-0.003 0.04522,0 0.06783,0 0.03768,0 0.07537,0 0.113048,0"
         id="path10" /><path
         style="fill:none;stroke:#000000;stroke-width:0.065;stroke-linecap:butt;stroke-linejoin:miter;stroke-opacity:1;stroke-dasharray:none"
         d="m 92.541184,146.23904 c 0.339143,0.0904 0.667449,0.24468 1.017431,0.27131 0.586844,0.0447 0.926227,-0.0863 1.424409,-0.20348 0.0094,-0.002 0.08558,-0.002 0.09044,0 0.0095,0.005 0.01249,0.0192 0.02262,0.0226 0.01214,0.004 0.07129,0 0.09044,0"
         id="path11" /><path
         style="fill:none;stroke:#000000;stroke-width:0.065;stroke-linecap:butt;stroke-linejoin:miter;stroke-opacity:1;stroke-dasharray:none"
         d="m 77.794772,163.67918 c 0.316892,0.17911 0.740786,0.45731 1.119119,0.57554 0.265274,0.0829 0.0062,-0.0622 0.223824,0 0.223825,0.064 0.04796,0.048 0.19185,0.0959 0.09082,0.0303 0.232037,0.0505 0.319746,0.064 0.07449,0.0114 0.148833,0.0245 0.223824,0.032 0.03182,0.003 0.06395,0 0.09592,0 0.09592,0 0.191849,0 0.287774,0 0.04263,0 0.08553,-0.005 0.1279,0 0.05401,0.006 0.105947,0.0252 0.159874,0.032 0.03173,0.004 0.06395,0 0.09593,0 0.08526,0 0.170532,0 0.255799,0 0.320908,0 -0.109074,-0.007 0.319746,0.032 0.05307,0.005 0.106995,-0.007 0.159875,0 0.03345,0.004 0.06256,0.0272 0.09592,0.032 0.0422,0.006 0.08553,-0.005 0.1279,0 0.05401,0.006 0.106074,0.0243 0.159875,0.032 0.02111,0.003 0.0428,-0.003 0.06395,0 0.06433,0.008 0.127519,0.024 0.19185,0.032 0.02114,0.003 0.04327,-0.005 0.06395,0 0.02312,0.006 0.04134,0.0244 0.06395,0.032 0.105564,0.0352 0.213392,0.0632 0.319747,0.0959 0.03221,0.01 0.06352,0.0227 0.09592,0.032 0.116848,0.0334 0.233432,0.0681 0.351724,0.0959 0.06311,0.0148 0.129752,0.0133 0.191849,0.032 0.04565,0.0137 0.08137,0.0536 0.1279,0.064 0.05202,0.0116 0.106767,-0.004 0.159875,0 0.0751,0.006 0.148918,0.0237 0.223824,0.032 0.02119,0.002 0.04263,0 0.06395,0 0.08526,0 0.170531,0 0.255796,0 0.170185,0 0.08562,0 0.255799,0 0.117242,0 0.234482,0 0.351724,0 0.08527,0 0.170532,0 0.255799,0 0.03197,0 0.06427,0.005 0.09592,0 0.136176,-0.0195 0.255156,-0.0851 0.383696,-0.1279 0.04169,-0.0139 0.08675,-0.0165 0.1279,-0.032 0.04463,-0.0168 0.08268,-0.0489 0.127899,-0.064 0.05156,-0.0172 0.10762,-0.017 0.159875,-0.032 0.02291,-0.007 0.04263,-0.0213 0.06395,-0.032 0.02133,-0.0107 0.04263,-0.0213 0.06395,-0.032 0.106582,-0.0533 0.209108,-0.11562 0.319749,-0.15988 0.01979,-0.008 0.04416,0.008 0.06395,0 0.09285,-0.0371 0.117681,-0.10425 0.191849,-0.15987 0.08628,-0.0647 0.0524,5.3e-4 0.159872,-0.064 0.02585,-0.0155 0.0381,-0.0484 0.06395,-0.064 0.0289,-0.0173 0.06352,-0.0227 0.09592,-0.032 0.173297,-0.0495 0.110371,-0.0221 0.319749,-0.0639 0.107637,-0.0215 0.254333,-0.0716 0.351724,-0.0959 0.09533,-0.0238 0.192971,-0.0381 0.287774,-0.064 0.02299,-0.006 0.04036,-0.0286 0.06395,-0.032 0.05276,-0.008 0.107117,0.008 0.159872,0 0.0236,-0.003 0.04044,-0.0281 0.06395,-0.032 0.04206,-0.007 0.0857,0.006 0.1279,0 0.03337,-0.005 0.06256,-0.0272 0.09592,-0.032 0.04221,-0.006 0.08527,0 0.1279,0 0.04263,0 0.08527,0 0.127899,0 0.138557,0 0.277117,0 0.415674,0 0.106582,0 0.213164,0 0.319749,0 0.159255,0 0.323575,-0.0106 0.479621,0.032 0.04599,0.0125 0.08268,0.0489 0.127899,0.064 0.05156,0.0172 0.108318,0.0148 0.159875,0.032 0.04522,0.0151 0.08166,0.0524 0.127899,0.0639 0.04136,0.0103 0.08677,-0.0112 0.1279,0 0.07831,0.0214 0.145076,0.0762 0.223824,0.0959 0.0517,0.0129 0.107617,-0.0105 0.159875,0 0.05628,0.0113 0.104896,0.0475 0.159872,0.0639 0.34082,0.10224 -0.0036,-0.0166 0.287774,0.032 0.0867,0.0145 0.169325,0.0482 0.255799,0.064 0.03146,0.006 0.06406,-0.003 0.09593,0 0.09618,0.008 0.19192,0.0207 0.287774,0.032 0.08534,0.0101 0.170867,0.0189 0.255799,0.032 0.126531,0.0195 0.221877,0.0531 0.351721,0.064 0.365233,0.0304 0.01228,-0.053 0.479623,0.032 0.02344,0.004 0.04263,0.0213 0.06395,0.032 0.06395,0.0107 0.1279,0.0213 0.19185,0.032 0.187679,0.0313 0.40187,0.0617 0.575545,0.1279 0.102545,0.0391 0.191439,0.10732 0.287774,0.15987 0.134231,0.0732 0.281718,0.11743 0.415674,0.19185 0.446849,0.24825 -0.09674,-0.0485 0.287774,0.19185 0.04042,0.0253 0.08526,0.0426 0.127899,0.064 0.08526,0.0426 0.167286,0.0925 0.255797,0.1279 0.286067,0.11442 0.0954,0.0114 0.351724,0.1279 0.06509,0.0296 0.126759,0.0663 0.191849,0.0959 0.05225,0.0238 0.108537,0.0383 0.159875,0.064 0.01349,0.007 0.02132,0.0213 0.03197,0.032 0.05329,0.032 0.103082,0.0707 0.159875,0.0959 0.04016,0.0179 0.08859,0.0123 0.1279,0.032 0.04766,0.0238 0.0792,0.0743 0.127899,0.0959 0.04966,0.0221 0.107617,0.017 0.159872,0.032 0.114287,0.0327 0.427151,0.14335 0.543573,0.19185 0.044,0.0183 0.08527,0.0426 0.1279,0.0639 0.04263,0.0213 0.08748,0.0387 0.127899,0.064 0.04519,0.0283 0.08271,0.0677 0.1279,0.0959 0.25486,0.15929 7.94e-4,-0.0174 0.255799,0.0959 0.05679,0.0252 0.107172,0.063 0.159872,0.0959 0.03259,0.0204 0.06875,0.0368 0.09592,0.064 0.03768,0.0377 0.05546,0.0932 0.09592,0.1279 0.03619,0.031 0.08652,0.0403 0.1279,0.0639 0.0568,0.0325 0.180933,0.12556 0.223824,0.15988 0.04948,0.0396 0.09426,0.12623 0.1279,0.15987 0.01685,0.0169 0.05073,0.0121 0.06395,0.032 0.592093,0.88814 -0.01797,0.0188 0.2558,0.5116 0.01894,0.0341 0.213667,0.27634 0.223824,0.28777 0.04005,0.0451 0.09594,0.0768 0.1279,0.1279 0.02328,0.0373 0.01934,0.0858 0.03197,0.1279 0.01937,0.0646 0.03657,0.13025 0.06395,0.19185 0.04841,0.10892 0.08458,0.0977 0.159874,0.19185 0.05728,0.0716 0.104862,0.15047 0.159874,0.22382 0.009,0.0121 0.01918,0.024 0.03197,0.032 0.07287,0.0455 0.150141,0.0837 0.223825,0.1279 0.03295,0.0198 0.0606,0.0488 0.09592,0.064 0.04039,0.0173 0.08751,0.0147 0.1279,0.032 0.03532,0.0151 0.06256,0.0449 0.09592,0.064 0.04138,0.0236 0.08527,0.0426 0.127898,0.0639 0.0213,0.0107 0.0418,0.0231 0.0639,0.032 0.0313,0.0125 0.065,0.0187 0.0959,0.032 0.0438,0.0188 0.0836,0.0463 0.12789,0.064 0.45312,0.18124 -0.089,-0.0614 0.41568,0.1279 0.0141,0.005 0.0179,0.0267 0.032,0.032 0.0727,0.0272 0.1509,0.0374 0.22383,0.0639 0.0448,0.0163 0.0827,0.0489 0.1279,0.064 0.10945,0.0365 0.16008,0.0161 0.2558,0.064 0.0344,0.0172 0.0606,0.0488 0.0959,0.064 0.0404,0.0173 0.0873,0.0151 0.1279,0.032 0.088,0.0367 0.1678,0.0912 0.2558,0.1279 0.31545,0.0789 -0.0118,-0.0262 0.19185,0.0959 0.0289,0.0173 0.0658,0.0169 0.0959,0.032 0.0135,0.007 0.0185,0.0252 0.032,0.032 0.0941,0.047 -0.0421,-0.0741 0.064,0.032"
         id="path12" /><path
         style="fill:none;stroke:#000000;stroke-width:0.065;stroke-linecap:butt;stroke-linejoin:miter;stroke-opacity:1;stroke-dasharray:none"
         d="m 80.416709,163.10363 c 0.586205,0.18119 1.159843,0.40964 1.758616,0.54357 0.239228,0.0535 0.490281,0 0.73542,0 0.06395,0 0.128162,-0.006 0.191849,0 0.05412,0.005 0.10586,0.026 0.159875,0.032 0.04237,0.005 0.08527,0 0.1279,0 0.138557,0 0.277114,0 0.415671,0 0.05095,0 0.11,-0.007 0.159874,0 0.0538,0.008 0.105799,0.0266 0.159874,0.032 0.0095,0.001 0.283848,0.007 0.319749,0 0.09668,-0.0176 0.192027,-0.0419 0.287774,-0.064 0.04282,-0.01 0.08774,-0.0141 0.1279,-0.032 0.05679,-0.0252 0.104286,-0.0681 0.159875,-0.0959 0.03014,-0.0151 0.06494,-0.0187 0.09592,-0.032 0.04381,-0.0188 0.08409,-0.0452 0.127897,-0.0639 0.10228,-0.0438 0.215892,-0.056 0.319749,-0.0959 0.123635,-0.003 0.187497,-0.1153 0.287774,-0.15987 0.132763,-0.059 0.279779,-0.0794 0.415674,-0.1279 0.152884,-0.0546 0.296124,-0.13357 0.447646,-0.19185 0.06292,-0.0242 0.130251,-0.0366 0.191849,-0.0639 0.03512,-0.0156 0.0606,-0.0488 0.09592,-0.064 0.04039,-0.0173 0.08621,-0.0181 0.127899,-0.032 0.05445,-0.0181 0.105424,-0.0458 0.159875,-0.064 0.251092,-0.0837 0.18283,-0.0384 0.415673,-0.1279 0.07576,-0.0291 0.148064,-0.0668 0.223822,-0.0959 0.06292,-0.0242 0.130252,-0.0366 0.191849,-0.064 0.03512,-0.0156 0.06256,-0.0449 0.09592,-0.064 0.04139,-0.0237 0.08652,-0.0403 0.1279,-0.064 0.03337,-0.0191 0.06081,-0.0483 0.09592,-0.0639 0.0616,-0.0274 0.128935,-0.0398 0.19185,-0.0639 0.598199,-0.25638 -0.03574,0.001 0.351724,-0.1279 0.05445,-0.0181 0.104685,-0.0482 0.159874,-0.064 0.09448,-0.027 0.193982,-0.0346 0.287772,-0.064 0.07748,-0.0242 0.147822,-0.0674 0.223824,-0.0959 0.09468,-0.0355 0.191354,-0.0655 0.287774,-0.0959 0.504171,-0.15921 0.129736,-0.0662 0.575548,-0.0959 0.0752,-0.005 0.148574,-0.0278 0.223822,-0.032 0.117062,-0.007 0.234484,0 0.351723,0 0.09593,0 0.19185,0 0.287775,0 0.08527,0 0.170748,-0.006 0.255799,0 0.06467,0.005 0.12724,0.0266 0.191849,0.032 0.06373,0.005 0.1279,0 0.191849,0 0.06395,0 0.127897,0 0.191847,0 0.106585,0 0.214347,0.0158 0.319749,0 0.110046,-0.0165 0.210167,-0.0766 0.319749,-0.0959 0.07347,-0.013 0.14936,0.005 0.223824,0 0.04423,-0.003 0.440897,-0.0476 0.511596,-0.064 0.06568,-0.0152 0.127614,-0.0435 0.191849,-0.064 0.170257,-0.0542 0.339077,-0.11343 0.511599,-0.15987 0.01135,-0.003 0.434406,-0.09 0.511598,-0.0959 0.296489,-0.0228 0.143423,0.0321 0.415671,-0.032 0.118293,-0.0278 0.233828,-0.0665 0.351724,-0.0959 0.09533,-0.0238 0.193093,-0.0376 0.287774,-0.064 0.386453,-0.10735 0.205224,-0.10878 0.639495,-0.15987 0.06351,-0.007 0.1279,0 0.19185,0 0.07461,0 0.149217,0 0.223824,0 0.170532,0 0.341064,0 0.511598,0 0.09592,0 0.191995,0.005 0.287772,0 0.523938,-0.0291 0.05408,-0.0162 0.575548,-0.1279 0.05211,-0.0112 0.106907,0.006 0.159874,0 0.330362,-0.0367 -0.152749,-0.0952 0.479624,-0.032 0.09778,0.01 0.193852,0.0351 0.287771,0.064 0.04556,0.014 0.08434,0.0446 0.1279,0.064 0.05245,0.0233 0.105822,0.0446 0.159874,0.064 0.158705,0.0567 0.322334,0.0994 0.479624,0.15988 0.07576,0.0291 0.14889,0.0647 0.22382,0.0959 0.13909,0.058 0.20333,0.0822 0.35172,0.1279 0.0742,0.0228 0.15075,0.0378 0.22383,0.0639 0.0764,0.0273 0.14738,0.0686 0.22382,0.0959 0.0731,0.0261 0.14976,0.0408 0.22383,0.064 0.0965,0.0302 0.19185,0.064 0.28777,0.0959 0.064,0.0213 0.12962,0.038 0.19185,0.0639 0.066,0.0275 0.12402,0.0733 0.19185,0.0959 0.0932,0.0311 0.19282,0.0386 0.28777,0.064 0.22339,0.0596 0.15418,0.0768 0.3837,0.0959 0.29243,0.0244 0.0925,-0.0352 0.3837,0.032 0.35203,0.0812 0.0951,0.0405 0.41567,0.1279 0.0524,0.0143 0.10627,0.0231 0.15987,0.032 0.52974,0.0883 0.25753,0.0244 0.54358,0.0959 0.0426,0.0107 0.0867,0.0165 0.1279,0.032 0.0446,0.0167 0.0853,0.0426 0.1279,0.0639 0.15269,0.0763 0.12717,0.0595 0.28777,0.15987 0.0326,0.0204 0.0626,0.0449 0.0959,0.064 0.27439,0.13719 -0.002,-0.008 0.22383,0.1279 0.0409,0.0245 0.0898,0.0354 0.1279,0.064 0.0241,0.0181 0.0398,0.0459 0.064,0.064 0.0191,0.0143 0.0426,0.0213 0.0639,0.032 0.0213,0.0107 0.0414,0.0245 0.064,0.032 0.0202,0.007 0.0426,0 0.064,0"
         id="path13" /><path
         style="fill:none;stroke:#000000;stroke-width:0.065;stroke-linecap:butt;stroke-linejoin:miter;stroke-opacity:1;stroke-dasharray:none"
         d="m 83.326419,162.52808 c 0.937926,0.0426 1.875475,0.16112 2.813785,0.1279 0.266457,-0.0853 0.532913,-0.17053 0.79937,-0.2558 0.02133,-0.0213 0.03596,-0.0528 0.06395,-0.064 0.02969,-0.0119 0.06439,0.005 0.09592,0 0.03325,-0.006 0.06256,-0.0272 0.09593,-0.032 0.09496,-0.0136 0.192437,0.0106 0.287774,0 0.04367,-0.005 0.08429,-0.0265 0.1279,-0.032 0.0423,-0.005 0.08526,0 0.127899,0 0.02133,0 0.04285,-0.003 0.06395,0 0.0538,0.008 0.106402,0.0223 0.159872,0.032 0.06379,0.0116 0.130344,0.0115 0.191849,0.032 0.03646,0.0121 0.06155,0.0468 0.09592,0.064 0.03015,0.0151 0.06395,0.0213 0.09593,0.032 0.09592,0.032 0.194439,0.057 0.287774,0.0959 0.03547,0.0148 0.06395,0.0426 0.09592,0.064 0.04263,0.0107 0.08675,0.0165 0.1279,0.032 0.206177,0.0773 0.06174,0.0303 0.191849,0.1279 0.05627,0.0422 0.135573,0.0537 0.19185,0.0959 0.0241,0.0181 0.03886,0.0472 0.06395,0.064 0.0089,0.006 0.02186,-0.003 0.03198,0 0.02262,0.008 0.04058,0.0273 0.06395,0.032 0.06271,0.0126 0.12877,-0.0105 0.191849,0 0.03325,0.006 0.06268,0.0264 0.09592,0.032 0.03154,0.005 0.06395,0 0.09592,0 0.06395,0 0.1279,0 0.19185,0 0.05329,0 0.106582,0 0.159874,0 0.05329,0 0.106802,0.005 0.159875,0 0.06456,-0.006 0.12777,-0.0221 0.191849,-0.032 0.09657,-0.0149 0.314161,-0.0422 0.415671,-0.0639 0.08594,-0.0184 0.169617,-0.0467 0.255799,-0.064 0.205095,-0.041 0.21807,-0.032 0.415674,-0.032 0.213164,0 0.426331,0 0.639495,0 0.08527,0 0.170786,-0.007 0.255799,0 0.05419,0.004 0.105947,0.0252 0.159875,0.032 0.03173,0.004 0.06427,-0.005 0.09592,0 0.419791,0.06 -0.253282,0.007 0.319749,0.064 0.04242,0.004 0.08527,0 0.1279,0 0.11724,0 0.234482,0 0.351721,0 0.06395,0 0.1279,0 0.19185,0 0.04264,0 0.08585,0.007 0.127899,0 0.08121,0.0273 0.126452,-0.0476 0.19185,-0.064 0.02069,-0.005 0.04373,0.007 0.06395,0 0.01431,-0.005 0.01767,-0.0272 0.03197,-0.032 0.02021,-0.007 0.04263,0 0.06395,0 0.07461,0 0.149217,0 0.223824,0 0.11724,0 0.234482,0 0.351724,0 0.04263,0 0.08584,-0.007 0.127897,0 0.05361,0.009 0.10586,0.026 0.159875,0.032 0.04237,0.005 0.08585,-0.007 0.127899,0 0.02349,0.004 0.04103,0.0254 0.06395,0.032 0.05226,0.0149 0.106823,0.0202 0.159874,0.032 0.0429,0.01 0.08481,0.0234 0.1279,0.032 0.0209,0.004 0.04488,-0.01 0.06395,0 0.01349,0.007 0.01767,0.0272 0.03198,0.032 0.02021,0.007 0.04263,0 0.06395,0 0.01066,0 0.02244,-0.005 0.03198,0 0.01349,0.007 0.0185,0.0252 0.03198,0.032 0.0095,0.005 0.02133,0 0.03198,0 0.01066,0 0.02133,0 0.03198,0"
         id="path14" /><path
         style="fill:none;stroke:#000000;stroke-width:0.065;stroke-linecap:butt;stroke-linejoin:miter;stroke-opacity:1;stroke-dasharray:none"
         d="m 101.42677,166.94945 c 0.60292,-0.0904 1.20545,-0.18356 1.80876,-0.27132 0.22573,-0.0328 0.45159,-0.0652 0.67829,-0.0904 0.0899,-0.01 0.18088,0 0.27132,0 0.15073,0 0.30146,0 0.45219,0 0.0754,0 0.15139,0.01 0.2261,0 0.15237,-0.0203 0.30002,-0.0687 0.45219,-0.0904 0.13429,-0.0192 0.27214,0.015 0.40697,0 0.0618,-0.007 0.11936,-0.0364 0.18088,-0.0452 0.0597,-0.009 0.12058,0 0.18088,0 0.13565,0 0.27131,0 0.40697,0 0.0452,0 0.0904,0 0.13566,0 0.0603,0 0.1229,-0.0166 0.18088,0 0.0523,0.0149 0.087,0.0661 0.13565,0.0904 0.0135,0.007 0.0312,-0.006 0.0452,0 0.0626,0.025 0.11693,0.0691 0.18088,0.0904 0.0286,0.01 0.0618,-0.01 0.0904,0 0.1279,0.0426 0.23783,0.12777 0.36175,0.18088 0.0438,0.0188 0.093,0.0239 0.13566,0.0452 0.0486,0.0243 0.0885,0.0635 0.13566,0.0904 0.0585,0.0334 0.12235,0.057 0.18087,0.0904 0.10001,-0.004 0.11817,0.0938 0.18088,0.13566 0.0835,0.0557 0.18784,0.08 0.27132,0.13565 0.0355,0.0237 0.0603,0.0603 0.0904,0.0904 0.0302,0.0302 0.0603,0.0603 0.0904,0.0904 0.0452,0.0452 0.0825,0.10019 0.13566,0.13566 0.0397,0.0264 0.0948,0.0207 0.13566,0.0452 0.0366,0.0219 0.0563,0.0649 0.0904,0.0904 0.027,0.0202 0.0603,0.0301 0.0904,0.0452 0.0603,0.0301 0.11776,0.0668 0.18087,0.0904 0.11638,0.0437 0.24537,0.0468 0.36176,0.0904 0.0631,0.0237 0.11692,0.0691 0.18087,0.0904 0.0286,0.01 0.0603,0 0.0904,0 0.0452,0.0151 0.091,0.0285 0.13566,0.0452 0.076,0.0285 0.14623,0.0759 0.2261,0.0904 0.089,0.0162 0.18087,0 0.27131,0 0.2261,0 0.45219,0 0.67829,0 0.52756,0 1.05512,0 1.58267,0 0.19595,0 0.3919,0 0.58785,0 0.10552,0 0.21134,-0.008 0.31654,0 0.0914,0.007 0.18087,0.0301 0.27131,0.0452 0.0904,0.0151 0.18141,0.0272 0.27132,0.0452 0.0609,0.0122 0.11891,0.0405 0.18088,0.0452 0.13525,0.0104 0.27131,0 0.40697,0 0.0904,0 0.18088,0 0.27131,0 0.257,0 0.51717,0.0234 0.76873,-0.0452 0.28217,-0.077 0.1486,-0.0987 0.40697,-0.13566 0.0448,-0.006 0.0911,0.007 0.13566,0 0.047,-0.008 0.0891,-0.0349 0.13566,-0.0452 0.14196,-0.0315 0.3534,-0.0493 0.49741,-0.0904 0.0324,-0.009 0.058,-0.036 0.0904,-0.0452 0.11316,-0.0323 0.39226,-0.0694 0.49741,-0.0904 0.0609,-0.0122 0.12376,-0.0207 0.18088,-0.0452 0.0499,-0.0214 0.087,-0.0661 0.13566,-0.0904 0.0426,-0.0213 0.09,-0.0315 0.13566,-0.0452 0.1051,-0.0315 0.21007,-0.0638 0.31653,-0.0904 0.0746,-0.0186 0.15248,-0.0231 0.2261,-0.0452 0.46214,-0.13864 -0.0245,-0.0611 0.49741,-0.13566 0.1203,-0.0172 0.24054,-0.0366 0.36175,-0.0452 0.0902,-0.006 0.18088,0 0.27132,0 0.10551,0 0.21102,0 0.31653,0 0.0904,0 0.18119,0.008 0.27132,0 0.27826,-0.0232 0.33916,-0.0805 0.63307,-0.13565 0.11944,-0.0224 0.24058,-0.0359 0.36175,-0.0452 0.0751,-0.006 0.15073,0 0.2261,0 0.10551,0 0.21102,0 0.31653,0 0.10551,0 0.21146,0.01 0.31654,0 0.0619,-0.006 0.11935,-0.0364 0.18087,-0.0452 0.039,-0.006 0.38513,-0.002 0.40698,0 0.0764,0.008 0.14955,0.0383 0.22609,0.0452 0.0901,0.008 0.18088,0 0.27132,0 0.12058,0 0.24117,0 0.36175,0 0.3919,0 0.7838,0 1.1757,0"
         id="path15" /><path
         style="fill:none;stroke:#000000;stroke-width:0.065;stroke-linecap:butt;stroke-linejoin:miter;stroke-opacity:1;stroke-dasharray:none"
         d="m 105.17996,162.65362 c 1.97411,0.14806 1.20416,0.13566 2.30618,0.13566 0.0452,0 0.0913,-0.009 0.13566,0 0.0467,0.009 0.0889,0.0359 0.13566,0.0452 0.0296,0.006 0.0612,-0.007 0.0904,0 0.0654,0.0164 0.11477,0.0772 0.18088,0.0904 0.0443,0.009 0.0952,-0.0202 0.13565,0 0.0302,0.0151 0.0151,0.0754 0.0452,0.0904 0.0687,0.0344 0.1522,0.0241 0.2261,0.0452 0.0648,0.0185 0.11829,0.0654 0.18087,0.0904 0.0885,0.0354 0.18605,0.0478 0.27132,0.0904 0.0486,0.0243 0.0871,0.0661 0.13566,0.0904 0.0853,0.0426 0.18205,0.057 0.27131,0.0904 0.076,0.0285 0.1501,0.0619 0.2261,0.0904 0.0446,0.0167 0.093,0.0239 0.13566,0.0452 0.0786,0.0393 0.14578,0.1 0.22609,0.13565 0.0568,0.0252 0.12192,0.0256 0.18088,0.0452 0.077,0.0257 0.15073,0.0603 0.2261,0.0904 0.0754,0.0301 0.15726,0.0474 0.22609,0.0904 0.2631,0.16443 -0.006,0.12697 0.31654,0.2261 0.13282,0.0409 0.27513,0.0465 0.40697,0.0904 0.0516,0.0172 0.0829,0.0773 0.13566,0.0904 0.0731,0.0183 0.15131,-0.009 0.2261,0 0.0946,0.0118 0.17783,0.0718 0.27131,0.0904 0.17981,0.036 0.3611,0.0645 0.54263,0.0904 0.0298,0.004 0.0603,0 0.0904,0 0.12058,0 0.24117,0 0.36175,0 0.18088,0 0.36176,0 0.54263,0 0.0961,0 0.22459,0.0102 0.31654,0 0.0911,-0.0101 0.18,-0.0369 0.27131,-0.0452 0.0751,-0.007 0.15074,0 0.2261,0 0.13566,0 0.27132,0 0.40697,0 0.42205,0 0.8441,0 1.26614,0 0.15073,0 0.30146,0 0.45219,0 0.0904,0 0.18115,0.007 0.27132,0 0.10627,-0.008 0.2106,-0.0334 0.31654,-0.0452 0.11984,-0.0133 0.24176,0.012 0.36175,0 0.0618,-0.006 0.11921,-0.0375 0.18088,-0.0452 0.0598,-0.007 0.12095,0.007 0.18087,0 0.21434,-0.0238 0.41808,-0.11912 0.63307,-0.13566 0.12023,-0.009 0.24117,0 0.36176,0 0.0301,0 0.0606,0.004 0.0904,0 0.0761,-0.0109 0.1497,-0.0367 0.22609,-0.0452 0.0599,-0.007 0.12059,0 0.18088,0 0.15073,0 0.30146,0 0.45219,0 0.021,0 0.61149,-0.007 0.67829,0 0.0474,0.005 0.0886,0.0374 0.13566,0.0452 0.0446,0.007 0.0904,0 0.13566,0 0.13565,0 0.27131,0 0.40697,0 0.10551,0 0.21133,-0.008 0.31653,0 0.15104,0.0116 0.30105,0.0352 0.45219,0.0452 0.13561,0.009 0.31371,0 0.4522,0 0.0297,0 0.11014,-0.008 0.13566,0 0.032,0.0107 0.0585,0.0346 0.0904,0.0452 0.0143,0.005 0.0317,-0.007 0.0452,0 0.0381,0.0191 0.055,0.0668 0.0904,0.0904 0.028,0.0187 0.0635,0.025 0.0904,0.0452 0.0341,0.0256 0.055,0.0668 0.0904,0.0904 0.0125,0.008 0.0327,-0.008 0.0452,0 0.0355,0.0237 0.0563,0.0649 0.0904,0.0904 0.0539,0.0404 0.12479,0.053 0.18087,0.0904 0.0177,0.0118 0.0275,0.0334 0.0452,0.0452 0.028,0.0187 0.0624,0.0265 0.0904,0.0452 0.0177,0.0118 0.0275,0.0334 0.0452,0.0452 0.0358,0.0239 0.2314,0.12234 0.27132,0.13565 0.0143,0.005 0.0309,-0.005 0.0452,0 0.0914,0.0305 0.12373,0.0904 0.22609,0.0904"
         id="path16" /><path
         style="fill:none;stroke:#000000;stroke-width:0.065;stroke-linecap:butt;stroke-linejoin:miter;stroke-opacity:1;stroke-dasharray:none"
         d="m 86.775731,161.02573 c 1.347938,-0.12254 0.988853,-0.092 3.391442,-0.27132 0.04509,-0.003 0.09089,0.006 0.135657,0 0.230505,-0.0329 0.288433,-0.1216 0.497412,-0.22609 0.08527,-0.0426 0.188547,-0.0431 0.271317,-0.0904 0.143377,-0.0819 0.176561,-0.15611 0.316534,-0.2261 0.0726,-0.0363 0.151487,-0.0585 0.226097,-0.0904 0.136448,-0.0585 0.271825,-0.11944 0.406971,-0.18087 0.0829,-0.0377 0.195951,-0.10551 0.271317,-0.13566 0.08851,-0.0354 0.180878,-0.0603 0.271315,-0.0904 0.04522,-0.0151 0.08847,-0.0385 0.135657,-0.0452 0.05969,-0.009 0.120793,0.005 0.180877,0 0.872704,-0.0727 -0.208711,-0.0223 0.813948,-0.0904 0.0752,-0.005 0.151191,0.008 0.226095,0 0.06177,-0.007 0.11921,-0.0375 0.180877,-0.0452 0.119655,-0.0149 0.241665,0.0109 0.361754,0 0.106146,-0.01 0.210603,-0.0334 0.316534,-0.0452 0.02996,-0.003 0.06029,0 0.09044,0 0.09044,0 0.180877,0 0.271314,0 0.165804,0 0.331608,0 0.497412,0 0.602924,0 1.205846,0 1.808771,0"
         id="path17" /><path
         style="fill:none;stroke:#000000;stroke-width:0.065;stroke-linecap:butt;stroke-linejoin:miter;stroke-opacity:1;stroke-dasharray:none"
         d="m 97.990103,158.49345 c 2.418517,0.1649 1.376561,-0.008 3.391447,0.45219 0.0606,0.0138 0.11911,0.0384 0.18087,0.0452 0.0749,0.008 0.15176,-0.0124 0.2261,0 0.10824,0.018 0.20857,0.0708 0.31653,0.0904 0.0593,0.0108 0.12059,0 0.18088,0 0.1658,0 0.33161,0 0.49741,0 0.0452,0 0.0908,-0.006 0.13566,0 0.0763,0.01 0.14971,0.0367 0.2261,0.0452 0.10486,0.0116 0.21102,0 0.31653,0 0.0904,0 0.18088,0 0.27132,0 0.0301,0 0.0606,0.004 0.0904,0 0.7038,-0.10054 -0.18547,0.008 0.40697,-0.0904 0.0297,-0.005 0.0607,0.005 0.0904,0 0.0613,-0.0102 0.11993,-0.033 0.18087,-0.0452 0.0899,-0.018 0.18111,-0.0288 0.27132,-0.0452 0.0756,-0.0137 0.15001,-0.0343 0.22609,-0.0452 0.0298,-0.004 0.0609,0.006 0.0904,0 0.0467,-0.009 0.0894,-0.0336 0.13566,-0.0452 0.0746,-0.0187 0.15153,-0.0266 0.2261,-0.0452 0.10645,-0.0266 0.20847,-0.0714 0.31653,-0.0904 0.14918,-0.0263 0.30365,-0.0155 0.45219,-0.0452 0.15432,-0.0309 0.29953,-0.0975 0.4522,-0.13566 0.0889,-0.0222 0.18043,-0.0331 0.27131,-0.0452 0.3995,-0.0533 0.82192,-0.0798 1.22092,0 0.0935,0.0187 0.17803,0.0708 0.27132,0.0904 0.194,0.0408 0.39309,0.0533 0.58785,0.0904 0.2442,0.0465 0.48128,0.12498 0.72351,0.18087 0.0749,0.0173 0.15194,0.025 0.22609,0.0452 0.092,0.0251 0.17843,0.069 0.27132,0.0904 0.10385,0.024 0.21202,0.0243 0.31653,0.0452 0.12189,0.0244 0.24022,0.0644 0.36176,0.0904 0.0897,0.0192 0.18315,0.02 0.27131,0.0452 0.22916,0.0655 0.45118,0.15384 0.67829,0.2261 0.10457,0.0333 0.21102,0.0603 0.31654,0.0904 0.10551,0.0301 0.20923,0.0674 0.31653,0.0904 0.10422,0.0223 0.21027,0.037 0.31653,0.0452 0.35312,0.0272 0.19214,-0.0424 0.54264,0.0452 0.0925,0.0231 0.18087,0.0603 0.27131,0.0904 0.13566,0.0151 0.27313,0.0184 0.40697,0.0452 0.0935,0.0187 0.1771,0.0759 0.27132,0.0904 0.10428,0.016 0.21272,-0.0189 0.31653,0 0.23023,0.0419 0.44922,0.13315 0.67829,0.18087 0.26725,0.0557 0.54912,0.0242 0.81395,0.0904 0.11137,0.0279 0.20593,0.10494 0.31653,0.13566 0.23401,0.0741 0.48678,0.0711 0.72351,0.13566 0.23553,0.0642 0.26548,0.11246 0.49741,0.13566 0.075,0.008 0.15161,-0.0115 0.2261,0 0.12285,0.0189 0.24064,0.0625 0.36175,0.0904 0.23354,0.0539 0.63242,0.11145 0.81395,0.13565 0.0299,0.004 0.0605,-0.004 0.0904,0 0.091,0.0114 0.18034,0.0339 0.27132,0.0452 0.0598,0.007 0.12058,0 0.18087,0 0.13566,0 0.27178,-0.0113 0.40697,0 0.10622,0.009 0.21032,0.0364 0.31654,0.0452 0.0751,0.006 0.15073,0 0.2261,0 0.0904,0 0.18087,0 0.27131,0 0.12059,0 0.24134,0.006 0.36175,0 0.84535,-0.0445 0.16856,-0.0138 0.85917,-0.13566 1.56681,-0.27649 -0.56904,0.16848 0.72351,-0.13565 0.14963,-0.0352 0.30111,-0.0621 0.45219,-0.0904 0.0901,-0.0169 0.18336,-0.0193 0.27132,-0.0452 0.16925,-0.0498 0.3336,-0.11535 0.49741,-0.18088 0.0626,-0.025 0.12058,-0.0603 0.18087,-0.0904 0.0754,-0.0301 0.15034,-0.0613 0.2261,-0.0904 0.21745,-0.0836 0.41248,-0.15822 0.63307,-0.22609 0.10488,-0.0323 0.21341,-0.0529 0.31653,-0.0904 0.2412,-0.0877 0.13308,-0.1124 0.40698,-0.18088 0.0439,-0.011 0.0907,0.005 0.13566,0 0.10605,-0.0106 0.21102,-0.0301 0.31653,-0.0452"
         id="path18" /><path
         style="fill:none;stroke:#000000;stroke-width:0.065;stroke-linecap:butt;stroke-linejoin:miter;stroke-opacity:1;stroke-dasharray:none"
         d="m 115.94214,155.28288 c 1.14556,0.39191 2.30255,0.75184 3.43667,1.1757 0.7455,-0.47528 0.76888,0.42513 1.1757,0.58786 0.15308,0.0872 0.33649,0.0753 0.49741,0.13565 0.0631,0.0237 0.11752,0.0674 0.18087,0.0904 0.10313,0.0375 0.2118,0.0577 0.31654,0.0904 0.13649,0.0427 0.27131,0.0904 0.40697,0.13566 0.0452,0.0151 0.091,0.0285 0.13566,0.0452 0.076,0.0285 0.14735,0.0708 0.2261,0.0904 0.1034,0.0259 0.21268,0.0213 0.31653,0.0452 0.0929,0.0214 0.17921,0.0659 0.27132,0.0904 0.13427,0.0358 0.27215,0.0567 0.40697,0.0904 0.35954,0.0899 0.30864,0.0941 0.67829,0.2261 0.0898,0.0321 0.18172,0.0579 0.27131,0.0904 0.42357,0.15402 0.0601,0.0164 0.36176,0.18087 0.4956,0.27033 0.1997,0.0988 0.58785,0.27132 0.71349,0.31711 -0.26543,-0.11011 0.31653,0.18088 0.0726,0.0363 0.15034,0.0613 0.2261,0.0904 0.1202,0.0462 0.23866,0.0978 0.36175,0.13566 0.27359,0.0842 0.19771,0.0202 0.49741,0.0452 0.0914,0.008 0.18198,0.0246 0.27132,0.0452 0.10692,0.0247 0.20924,0.0675 0.31654,0.0904 0.14379,0.10211 0.30223,0.0238 0.45219,0.0452 0.29487,0.0421 0.0712,0.0599 0.40697,0.0904 0.0901,0.008 0.18114,-0.007 0.27132,0 0.10627,0.008 0.21048,0.0346 0.31653,0.0452 0.075,0.007 0.15073,0 0.2261,0"
         id="path19" /><path
         style="fill:none;stroke:#000000;stroke-width:0.065;stroke-linecap:butt;stroke-linejoin:miter;stroke-opacity:1;stroke-dasharray:none"
         d="m 120.14753,150.53487 c 1.38672,0.66321 2.76484,1.34474 4.16017,1.98964 2.00283,0.92568 0.65355,0.27334 1.49224,0.58785 0.0316,0.0118 0.0591,0.0327 0.0904,0.0452 0.0443,0.0177 0.0914,0.0275 0.13565,0.0452 0.35989,0.14395 0.29322,0.14296 0.67829,0.27132 0.38614,0.12871 0.3009,0.0571 0.72351,0.22609 0.0939,0.0376 0.18088,0.0904 0.27132,0.13566 0.0904,0.0452 0.18087,0.0904 0.27131,0.13566 0.0904,0.0452 0.17927,0.0938 0.27132,0.13565 0.0739,0.0336 0.15562,0.0502 0.22609,0.0904 0.14156,0.0809 0.26717,0.18744 0.40698,0.27132 0.18841,0.11305 0.27634,0.12561 0.45219,0.22609 0.11236,0.0131 0.14333,0.13123 0.22609,0.18088 0.0409,0.0245 0.096,0.0188 0.13566,0.0452 0.0532,0.0355 0.0904,0.0904 0.13566,0.13566 0.0301,0.0301 0.0539,0.0685 0.0904,0.0904 0.0409,0.0245 0.096,0.0188 0.13566,0.0452 0.0709,0.0473 0.12058,0.12058 0.18087,0.18087 0.0301,0.0301 0.0603,0.0603 0.0904,0.0904 0.0302,0.0301 0.0649,0.0563 0.0904,0.0904 0.0202,0.027 0.0189,0.0694 0.0452,0.0904 0.0743,0.0595 0.2659,0.12336 0.36175,0.18088 0.0932,0.0559 0.18436,0.11566 0.27132,0.18087 0.0341,0.0256 0.055,0.0668 0.0904,0.0904 0.0561,0.0374 0.12695,0.05 0.18088,0.0904 0.0341,0.0256 0.055,0.0668 0.0904,0.0904 0.0125,0.008 0.0302,0 0.0452,0 0.0302,0.0151 0.0666,0.0214 0.0904,0.0452 0.0238,0.0238 0.0214,0.0666 0.0452,0.0904 0.0477,0.0477 0.13321,0.0428 0.18088,0.0904 0.1174,0.11741 -0.041,0.0904 0.13565,0.0904"
         id="path20" /><path
         style="fill:none;stroke:#000000;stroke-width:0.065;stroke-linecap:butt;stroke-linejoin:miter;stroke-opacity:1;stroke-dasharray:none"
         d="m 122.90591,145.9225 c 0.87423,0.34668 1.77602,0.63066 2.62271,1.04004 0.5308,0.25665 1.00371,0.61952 1.49224,0.94961 0.0707,0.0477 0.11715,0.12423 0.18088,0.18088 0.0721,0.0641 0.14888,0.12296 0.22609,0.18087 0.0435,0.0326 0.0932,0.0565 0.13566,0.0904 0.0333,0.0266 0.0581,0.0627 0.0904,0.0904 0.0733,0.0628 0.15785,0.11263 0.22609,0.18088 0.0983,0.0983 0.17784,0.2137 0.27132,0.31653 0.0573,0.0631 0.13568,0.10857 0.18088,0.18088 0.0329,0.0527 0.0174,0.12529 0.0452,0.18088 0.0486,0.0972 0.12495,0.17811 0.18087,0.27131 0.0532,0.0887 0.10267,0.23832 0.18088,0.31653 0.0683,0.0683 0.15785,0.11263 0.22609,0.18088 0.0384,0.0384 0.052,0.0972 0.0904,0.13566 0.0238,0.0238 0.0615,0.0279 0.0904,0.0452 0.0466,0.028 0.0944,0.0551 0.13566,0.0904 0.0647,0.0555 0.11149,0.13131 0.18088,0.18088 0.0388,0.0277 0.0952,0.0199 0.13565,0.0452 0.0819,0.0512 0.14173,0.13401 0.2261,0.18088 0.0543,0.0302 0.12135,0.0274 0.18088,0.0452 0.0913,0.0274 0.18234,0.0562 0.27131,0.0904 0.11479,0.0441 0.40537,0.18034 0.54263,0.22609 0.0143,0.005 0.0317,-0.007 0.0452,0 0.1032,0.0516 0.12458,0.10182 0.2261,0.13566 0.059,0.0197 0.11957,0.035 0.18088,0.0452 0.0595,0.01 0.12238,-0.0146 0.18087,0 0.0327,0.008 0.0592,0.0327 0.0904,0.0452 0.2261,0.0904 0.0904,0 0.40697,0.13566 0.0196,0.008 0.0247,0.0394 0.0452,0.0452 0.0882,0.0252 0.18009,0.0361 0.27132,0.0452 0.06,0.006 0.12059,0 0.18088,0 0.13565,0 0.27131,0 0.40697,0 0.0603,0 0.12105,-0.007 0.18088,0 0.72107,0.0901 -0.62975,0.004 0.49741,0.0904 0.0902,0.007 0.18088,0 0.27131,0 0.16581,0 0.33161,0 0.49742,0 0.0754,0 0.15073,0 0.22609,0 0.0301,0 0.0607,-0.005 0.0904,0 0.0613,0.0102 0.11957,0.035 0.18088,0.0452 0.0571,0.009 0.28923,0 0.31653,0 0.0452,0 0.0913,0.009 0.13566,0 0.033,-0.007 0.0603,-0.0301 0.0904,-0.0452 0.0301,-0.0151 0.0603,-0.0301 0.0904,-0.0452"
         id="path21" /><path
         style="fill:none;stroke:#000000;stroke-width:0.065;stroke-linecap:butt;stroke-linejoin:miter;stroke-opacity:1;stroke-dasharray:none"
         d="m 124.17204,142.57628 c 1.25107,0.64814 2.56408,1.18863 3.7532,1.94442 0.60328,0.38344 1.04472,0.97631 1.58267,1.44702 0.0661,0.0579 0.15996,0.0778 0.2261,0.13566 0.15126,0.0267 0.10402,0.19446 0.18088,0.27131 0.0682,0.0683 0.15281,0.11807 0.2261,0.18088 0.33915,0.29071 0.41164,0.39501 0.76872,0.63307 0.0561,0.0374 0.12566,0.0518 0.18088,0.0904 0.79934,0.55954 -0.15907,-0.0117 0.49741,0.31653 0.12591,0.063 0.17131,0.12609 0.27132,0.2261 0.0452,0.0452 0.0836,0.0985 0.13565,0.13566 0.0549,0.0392 0.12372,0.0547 0.18088,0.0904 0.0639,0.0399 0.115,0.0991 0.18088,0.13565 0.071,0.0394 0.15149,0.0585 0.22609,0.0904 0.031,0.0133 0.0585,0.0346 0.0904,0.0452 0.10411,0.0347 0.21465,0.0497 0.31654,0.0904 0.0505,0.0202 0.0871,0.0661 0.13565,0.0904 0.0426,0.0213 0.0914,0.0275 0.13566,0.0452 0.10659,0.0426 0.20764,0.0993 0.31654,0.13565 0.0729,0.0243 0.15219,0.0241 0.22609,0.0452 0.11523,0.0329 0.10082,0.0856 0.2261,0.13566 0.028,0.0112 0.0603,0 0.0904,0 0.0301,0 0.0603,0 0.0904,0"
         id="path22" /><path
         style="fill:none;stroke:#000000;stroke-width:0.065;stroke-linecap:butt;stroke-linejoin:miter;stroke-opacity:1;stroke-dasharray:none"
         d="m 124.7599,138.95874 c 0.92714,1.85429 -0.0674,-0.0741 4.38626,3.7532 0.51759,0.4448 0.99076,0.93889 1.49224,1.40179 0.62895,0.58058 -0.0797,-0.10224 0.54263,0.40697 0.3288,0.26903 0.12272,0.2024 0.49741,0.4522 0.38607,0.25738 0.14359,0.0295 0.49741,0.22609 0.0659,0.0366 0.115,0.0991 0.18088,0.13566 0.0288,0.016 0.24843,0.0902 0.31653,0.13566 0.0627,0.0418 0.11817,0.0938 0.18088,0.13566 0.0731,0.0487 0.15578,0.0829 0.2261,0.13565 0.0512,0.0384 0.0852,0.0964 0.13565,0.13566 0.13151,0.10229 0.29559,0.2042 0.4522,0.27132 0.0438,0.0188 0.0904,0.0301 0.13565,0.0452 0.0754,0.0452 0.14749,0.0964 0.2261,0.13565 0.0353,0.0177 0.18658,0.0509 0.2261,0.0904 0.0238,0.0238 0.0214,0.0666 0.0452,0.0904 0.0477,0.0477 0.12695,0.05 0.18087,0.0904 0.0341,0.0256 0.0603,0.0603 0.0904,0.0904 0.0151,0.0151 0.0262,0.0357 0.0452,0.0452 0.0135,0.007 0.0301,0 0.0452,0"
         id="path23" /><path
         style="fill:none;stroke:#000000;stroke-width:0.1;stroke-linecap:butt;stroke-linejoin:miter;stroke-opacity:1;stroke-dasharray:none"
         d="m 107.93834,100.3415 c 0.19595,-0.3316 0.35816,-0.685623 0.58785,-0.99482 0.16525,-0.222454 0.4045,-0.380058 0.58785,-0.587851 0.0446,-0.05055 0.0428,-0.13321 0.0904,-0.180877 0.0768,-0.07686 0.18551,-0.114144 0.27131,-0.180877 0.10096,-0.07852 0.17368,-0.188699 0.27132,-0.271315 0.14735,-0.124685 0.29679,-0.247248 0.45219,-0.361754 0.13126,-0.09672 0.27292,-0.178512 0.40697,-0.271314 0.062,-0.0429 0.115,-0.09906 0.18088,-0.13566 0.071,-0.03942 0.15149,-0.05846 0.22609,-0.09044 0.031,-0.01328 0.0638,-0.02453 0.0904,-0.04522 0.1097,-0.08532 0.20269,-0.191622 0.31654,-0.271315 0.0391,-0.02733 0.093,-0.02389 0.13566,-0.04522 0.0486,-0.02432 0.0896,-0.06164 0.13565,-0.09044 0.0745,-0.04658 0.15074,-0.09044 0.2261,-0.13566 0.0754,-0.04522 0.14497,-0.101854 0.2261,-0.135657 0.002,-5.29e-4 0.62874,-0.179435 0.63306,-0.180877 0.28879,-0.09626 0.56435,-0.237913 0.85917,-0.316534 0.13428,-0.03581 0.2717,-0.05861 0.40697,-0.09044 0.24199,-0.05694 0.4831,-0.117613 0.72351,-0.180877 0.1662,-0.04374 0.33068,-0.09398 0.49741,-0.13566 0.1951,-0.04877 0.39276,-0.08688 0.58785,-0.135657 0.22702,-0.05675 0.45004,-0.129337 0.67829,-0.180877 0.23935,-0.05405 0.48196,-0.09252 0.72351,-0.135658 0.18052,-0.03223 0.36382,-0.0498 0.54263,-0.09044 0.15346,-0.03487 0.29953,-0.09749 0.45219,-0.135658 0.0889,-0.02223 0.18103,-0.02928 0.27132,-0.04522 0.16596,-0.02929 0.33031,-0.06864 0.49741,-0.09044 0.28794,-0.03756 0.65253,-0.05936 0.94961,-0.04522 0.79751,0.03798 0.28332,0.03247 1.04004,0.13566 0.16496,0.02249 0.33346,0.0163 0.49741,0.04522 0.0939,0.01656 0.1792,0.06588 0.27131,0.09044 0.9408,0.209066 -0.0272,-0.02069 0.67829,0.180877 0.11952,0.03415 0.24166,0.05841 0.36176,0.09044 0.10603,0.02828 0.21102,0.06029 0.31653,0.09044 0.21103,0.06029 0.42487,0.111475 0.63307,0.180878 0.1089,0.0363 0.20641,0.103266 0.31654,0.135657 0.14747,0.04337 0.30146,0.06029 0.45219,0.09044 0.15073,0.03015 0.30241,0.05587 0.45219,0.09044 0.46566,0.107458 0.27499,0.08213 0.76873,0.180877 0.50549,0.101097 0.55966,0.08275 1.08526,0.226094 0.13796,0.03763 0.27061,0.0926 0.40697,0.13566 0.15007,0.04739 0.30057,0.09354 0.4522,0.135657 0.11976,0.03327 0.24183,0.05773 0.36175,0.09044 0.046,0.01254 0.0897,0.03268 0.13566,0.04522 0.11991,0.03271 0.24311,0.05336 0.36175,0.09044 0.95627,0.298834 -0.22466,-0.01095 0.72351,0.226095 0.55074,0.137686 0.59329,0.154834 1.1757,0.271317 0.0899,0.01799 0.18181,0.02532 0.27131,0.04522 0.0465,0.01035 0.0894,0.03366 0.13566,0.04522 0.13482,0.0337 0.27216,0.05673 0.40698,0.09044 0.0462,0.01156 0.0902,0.031 0.13565,0.04522 0.19569,0.06115 0.38948,0.129127 0.58785,0.180877 0.14874,0.0388 0.30082,0.06373 0.4522,0.09044 0.11697,0.02064 0.57547,0.07962 0.67828,0.09044 0.19176,0.02019 0.55181,0.03621 0.76873,0.09044 0.0925,0.02312 0.17965,0.06425 0.27132,0.09044 0.43239,0.123542 0.34655,0.06114 0.81395,0.226097 0.10824,0.03821 0.20926,0.09479 0.31653,0.135658 0.2094,0.07977 0.42567,0.141253 0.63307,0.226097 0.12478,0.05105 0.2345,0.136339 0.36175,0.180877 0.40408,0.141427 0.56439,0.116033 0.94961,0.226094 0.43435,0.124103 0.49814,0.161811 0.85916,0.316537 0.10551,0.04522 0.21508,0.08195 0.31654,0.135657 0.54089,0.286353 0.3708,0.235141 0.85916,0.587852 0.13218,0.0954 0.27242,0.17925 0.40697,0.27131 0.15185,0.1039 0.30035,0.21264 0.4522,0.31654 0.13456,0.0921 0.27728,0.1725 0.40697,0.27131 2.08381,1.58766 -0.55823,-0.35421 0.90439,0.72351 0.16505,0.12162 0.32054,0.25807 0.49741,0.36175 0.26169,0.15341 0.54524,0.26623 0.81395,0.40698 0.0481,0.0252 0.0876,0.0651 0.13565,0.0904 0.26097,0.13735 0.90051,0.45677 1.22092,0.58785 0.43795,0.17916 0.50362,0.15335 0.90439,0.36175 0.24549,0.12766 0.4802,0.27518 0.7235,0.40697 0.11855,0.0642 0.24425,0.11478 0.36176,0.18088 0.25641,0.10407 0.44235,0.31738 0.67829,0.45219 0.0997,0.057 0.21524,0.0816 0.31653,0.13566 0.12547,0.0669 0.23457,0.1625 0.36175,0.2261 0.0853,0.0426 0.18235,0.0562 0.27132,0.0904 0.0383,0.0147 0.45944,0.20114 0.54263,0.2261 0.38872,0.11662 0.10053,-0.0176 0.31654,0.0904"
         id="path24" /><path
         style="fill:none;stroke:#000000;stroke-width:0.1;stroke-linecap:butt;stroke-linejoin:miter;stroke-opacity:1;stroke-dasharray:none"
         d="m 109.34013,101.69808 c 0.43577,-0.54471 0.45456,-0.59164 1.31136,-1.26614 0.30884,-0.24313 0.66007,-0.42707 0.99483,-0.633068 0.11481,-0.07066 0.24469,-0.113988 0.36175,-0.180878 0.48299,-0.275994 -0.3327,0.13964 0.36175,-0.180877 0.12241,-0.0565 0.23658,-0.130804 0.36176,-0.180877 0.62981,-0.251923 0.003,0.08873 0.63307,-0.226094 0.32855,-0.164275 -0.0263,-0.01265 0.22609,-0.180877 0.0561,-0.03739 0.11693,-0.06912 0.18088,-0.09044 0.0286,-0.0095 0.0618,0.0095 0.0904,0 0.1089,-0.0363 0.20763,-0.09936 0.31653,-0.135657 0.0286,-0.0095 0.0622,0.01058 0.0904,0 0.0947,-0.0355 0.17892,-0.09459 0.27132,-0.135657 0.13289,-0.05907 0.21094,-0.05273 0.36175,-0.09044 0.12701,-0.03175 0.23727,-0.09416 0.36175,-0.135658 0.13927,-0.04642 0.26362,-0.0546 0.40698,-0.09044 0.0462,-0.01156 0.091,-0.02848 0.13566,-0.04522 0.076,-0.0285 0.14537,-0.08194 0.22609,-0.09044 0.20987,-0.02209 0.4231,0.02101 0.63307,0 0.33914,-0.03391 0.16957,-0.09609 0.40697,-0.135657 1.33444,-0.14827 -0.38222,0.06538 0.72351,-0.135657 0.0593,-0.0108 0.12077,0.0046 0.18088,0 0.13609,-0.01048 0.27095,-0.03388 0.40697,-0.04522 0.13472,-0.01122 0.27225,0.01122 0.40697,0 0.0914,-0.0076 0.17995,-0.0376 0.27132,-0.04522 0.0901,-0.0075 0.18088,0 0.27132,0 0.18087,0 0.36254,-0.01688 0.54263,0 0.3035,0.02845 0.60164,0.100039 0.90438,0.135657 0.21011,0.02471 0.42209,0.02959 0.63307,0.04522 0.19599,0.01453 0.39186,0.0307 0.58785,0.04522 0.54729,0.04054 0.7243,0.03532 1.26614,0.135657 0.19774,0.03662 0.39121,0.09352 0.58785,0.13566 0.22546,0.04831 0.45167,0.09316 0.67829,0.135657 0.25574,0.04795 0.51283,0.08852 0.76873,0.135658 0.31689,0.05837 0.63271,0.122502 0.9496,0.180877 0.2559,0.04714 0.51392,0.08294 0.76873,0.135657 0.18257,0.03777 0.36005,0.09788 0.54263,0.13566 0.2548,0.05272 0.51387,0.08319 0.76873,0.135657 0.25783,0.05308 0.51036,0.130463 0.76872,0.180877 0.65477,0.155858 1.33033,0.188923 1.98965,0.316534 0.16873,0.03266 0.33068,0.09398 0.49741,0.135657 0.4751,0.118777 0.45706,0.08132 0.99482,0.226097 0.19797,0.0533 0.39043,0.125602 0.58785,0.180882 0.17954,0.0503 0.36134,0.0921 0.54264,0.13566 0.19554,0.0469 0.39832,0.0684 0.58785,0.13565 0.27981,0.0993 0.54365,0.2389 0.81394,0.36176 0.22714,0.10324 0.45115,0.21329 0.67829,0.31653 0.1045,0.0475 0.21386,0.0843 0.31654,0.13566 0.0786,0.0393 0.15073,0.0904 0.22609,0.13566 0.0754,0.0452 0.15073,0.0904 0.2261,0.13566 0.0754,0.0452 0.14332,0.10609 0.22609,0.13565 0.13087,0.0467 0.27216,0.0567 0.40698,0.0904 0.0462,0.0116 0.0909,0.0289 0.13566,0.0452 0.12103,0.044 0.24407,0.0833 0.36175,0.13566 0.71248,0.31666 0.20679,0.10556 0.72351,0.40697 0.0873,0.0509 0.1852,0.0827 0.27131,0.13566 0.11043,0.068 0.20993,0.15229 0.31654,0.2261 0.0894,0.0619 0.18341,0.11694 0.27131,0.18087 0.0781,0.0568 0.14703,0.12553 0.2261,0.18088 0.072,0.0504 0.15216,0.0881 0.22609,0.13566 0.13715,0.0882 0.27242,0.17925 0.40698,0.27131 0.21877,0.14969 0.75063,0.52524 0.9496,0.67829 0.0338,0.026 0.0586,0.0621 0.0904,0.0904 0.10387,0.0923 0.21267,0.17899 0.31654,0.27132 0.0319,0.0283 0.0539,0.0685 0.0904,0.0904 0.12614,0.0757 0.64422,0.31506 0.76873,0.36176 0.10275,0.0385 0.21243,0.0557 0.31654,0.0904 0.077,0.0257 0.14981,0.0627 0.22609,0.0904 0.0896,0.0326 0.18154,0.0584 0.27132,0.0904 0.12128,0.0433 0.23958,0.0949 0.36175,0.13566 0.1041,0.0347 0.21319,0.0535 0.31654,0.0904 0.1081,0.0386 0.20763,0.0994 0.31653,0.13566 0.64864,0.21621 0.11464,-0.0667 0.58785,0.27131 0.32491,0.23208 -0.31008,-0.31746 0.27132,0.18088 0.0485,0.0416 0.0824,0.10018 0.13566,0.13566 0.0396,0.0264 0.0984,0.0155 0.13565,0.0452 0.0424,0.034 0.0578,0.0922 0.0904,0.13565 0.0527,0.0703 0.0904,0.0381 0.0904,0.13566"
         id="path25" /><path
         style="fill:none;stroke:#000000;stroke-width:0.1;stroke-linecap:butt;stroke-linejoin:miter;stroke-opacity:1;stroke-dasharray:none"
         d="m 113.27421,101.9694 c 1.3415,-0.4522 2.66115,-0.97531 4.02451,-1.35658 0.42321,-0.11836 0.8751,-0.0828 1.31136,-0.13566 0.69122,-0.0838 -0.50211,-0.0109 0.45219,-0.0904 0.0901,-0.008 0.18088,0 0.27132,0 0.0603,0 0.12104,0.007 0.18087,0 0.0617,-0.008 0.11899,-0.0396 0.18088,-0.0452 0.85955,0 -0.0691,0.0256 0.49741,-0.0452 0.0598,-0.007 0.12059,0 0.18088,0 0.19595,0 0.3919,0 0.58785,0 0.0452,0 0.0906,-0.003 0.13566,0 0.15103,0.0116 0.30091,0.0373 0.45219,0.0452 0.13547,0.007 0.27364,-0.025 0.40697,0 0.11283,0.0212 0.20641,0.10327 0.31654,0.13566 0.14747,0.0434 0.30408,0.0493 0.45219,0.0904 0.12408,0.0345 0.23732,0.10247 0.36175,0.13566 0.10299,0.0275 0.21268,0.0212 0.31654,0.0452 0.0929,0.0214 0.1802,0.0624 0.27131,0.0904 0.10488,0.0323 0.2118,0.0577 0.31654,0.0904 0.13649,0.0426 0.26749,0.10417 0.40697,0.13566 0.32877,0.0742 0.66398,0.11655 0.99482,0.18088 0.21185,0.0412 0.4224,0.0888 0.63307,0.13566 0.19632,0.0436 0.38949,0.10259 0.58785,0.13565 0.43526,0.0725 0.87335,0.12746 1.31136,0.18088 0.83076,0.10131 0.26175,-0.0118 1.13048,0.0904 1.61995,0.19058 0.34165,0.0471 1.53746,0.27131 0.28497,0.0534 0.5727,0.0909 0.85916,0.13566 0.19588,0.0306 0.39345,0.0516 0.58785,0.0904 0.18283,0.0366 0.36249,0.0876 0.54263,0.13566 1.07468,0.28658 0.52049,0.13984 1.49224,0.45219 0.56982,0.18316 0.50126,0.14379 0.99482,0.31654 0.16652,0.0583 0.33797,0.10535 0.49741,0.18087 0.30443,0.1442 0.55074,0.38731 0.81395,0.58785 0.92299,0.70323 0.1254,0.1 0.81395,0.54263 0.45223,0.29073 0.16184,0.15021 0.54263,0.36176 0.0589,0.0327 0.12152,0.0585 0.18088,0.0904 0.13663,0.0736 0.26394,0.16588 0.40697,0.2261 0.14503,0.0611 0.3029,0.0859 0.45219,0.13566 0.077,0.0257 0.14909,0.0648 0.2261,0.0904 0.21262,0.0709 0.18456,0.0143 0.40697,0.13566 0.0954,0.0521 0.17561,0.12934 0.27131,0.18087 0.10108,0.0544 0.21998,0.0736 0.31654,0.13566 0.1169,0.0752 0.19904,0.19711 0.31654,0.27132 0.17097,0.10798 0.3639,0.17669 0.54263,0.27131 0.0777,0.0411 0.14578,0.1 0.22609,0.13566 0.19185,0.0853 0.39846,0.13551 0.58785,0.2261 0.15858,0.0758 0.30068,0.18219 0.45219,0.27131 0.10475,0.0616 0.21234,0.11836 0.31654,0.18088 0.12193,0.0732 0.24179,0.14975 0.36175,0.22609 0.0459,0.0292 0.0891,0.0625 0.13566,0.0904 0.19756,0.11854 -0.0327,-0.039 0.2261,0.0904 0.0486,0.0243 0.0885,0.0635 0.13565,0.0904 0.18039,0.10308 0.22622,0.0905 0.40698,0.2261 0.0512,0.0384 0.0881,0.0929 0.13566,0.13565 0.10329,0.093 0.20536,0.18794 0.31653,0.27132 0.21739,0.16304 0.45219,0.30146 0.67829,0.45219"
         id="path26" /><path
         style="fill:none;stroke:#000000;stroke-width:0.1;stroke-linecap:butt;stroke-linejoin:miter;stroke-opacity:1;stroke-dasharray:none"
         d="m 114.17859,94.101247 c 3.02685,-1.297221 1.23391,-0.592434 3.5271,-1.401797 0.0765,-0.02701 0.14909,-0.06477 0.2261,-0.09044 0.60477,-0.201592 -0.38644,0.178829 0.45219,-0.135657 0.0316,-0.01183 0.0572,-0.03968 0.0904,-0.04522 0.0595,-0.0099 0.12119,0.0085 0.18088,0 0.0472,-0.0067 0.0891,-0.03488 0.13565,-0.04522 0.0895,-0.0199 0.18142,-0.02724 0.27132,-0.04522 0.0609,-0.0122 0.11911,-0.03835 0.18088,-0.04522 0.0749,-0.0083 0.15119,0.0083 0.22609,0 0.0618,-0.0069 0.11911,-0.03836 0.18088,-0.04522 0.0749,-0.0083 0.15073,0 0.2261,0 0.15073,0 0.30146,0 0.45219,0 0.0904,0 0.18088,0 0.27132,0 0.0904,0 0.18118,-0.0075 0.27131,0 0.0914,0.0076 0.18034,0.03385 0.27132,0.04522 0.86947,0.108683 0.10542,-0.01257 0.7235,0.09044 0.0904,0.01508 0.18198,0.02461 0.27132,0.04522 0.29673,0.06848 0.56536,0.184904 0.85916,0.271314 0.0737,0.0217 0.15387,0.01894 0.2261,0.04522 0.095,0.03455 0.17609,0.10165 0.27132,0.135657 0.11705,0.04181 0.24512,0.04747 0.36175,0.09044 0.49022,0.180607 0.35989,0.171804 0.67829,0.316534 0.1045,0.0475 0.21231,0.08755 0.31653,0.135657 0.0918,0.04237 0.17664,0.100156 0.27132,0.135657 0.14735,0.05526 0.30379,0.08328 0.45219,0.13566 0.10825,0.0382 0.20763,0.09936 0.31654,0.135657 0.11791,0.03931 0.24224,0.05629 0.36175,0.09044 0.0917,0.02619 0.17883,0.06732 0.27132,0.09044 0.0889,0.02222 0.1812,0.02832 0.27131,0.04522 0.15108,0.02833 0.30027,0.06706 0.45219,0.09044 0.0447,0.0069 0.0904,0 0.13566,0 0.21102,0 0.42237,-0.0117 0.63307,0 0.062,0.0034 0.12092,0.02887 0.18088,0.04522 0.10587,0.02887 0.2108,0.06107 0.31653,0.09044 0.16559,0.046 0.33217,0.08845 0.49741,0.135657 0.0458,0.0131 0.089,0.03523 0.13566,0.04522 0.0572,0.01228 0.5188,0.08249 0.67829,0.135657 0.36409,0.121365 0.091,0.07003 0.49741,0.180877 0.0742,0.02021 0.15413,0.01823 0.2261,0.04522 0.0509,0.01908 0.0871,0.06614 0.13565,0.09044 0.0426,0.02133 0.0904,0.03014 0.13566,0.04522 0.13566,0.04522 0.27001,0.09457 0.40698,0.135658 0.1658,0.04522 0.3316,0.09044 0.49741,0.135659 0.0301,0.01508 0.0585,0.03456 0.0904,0.04522 0.19449,0.06483 0.39216,0.119726 0.58785,0.180877 0.0455,0.01421 0.0917,0.02689 0.13566,0.04522 0.13703,0.0571 0.26613,0.133932 0.40697,0.180877 0.087,0.02899 0.18286,0.02109 0.27131,0.04522 0.0783,0.02135 0.14982,0.0627 0.2261,0.09044 0.13439,0.04887 0.2742,0.08255 0.40697,0.13566 0.10658,0.04263 0.2094,0.09445 0.31654,0.135657 0.089,0.03422 0.17934,0.06535 0.27131,0.09044 0.0742,0.02021 0.15586,0.014 0.2261,0.04522 0.0689,0.03061 0.1116,0.105971 0.18088,0.135657 0.14464,0.06199 0.30178,0.08938 0.45219,0.135657 0.0456,0.01402 0.09,0.03152 0.13566,0.04522 0.1051,0.03153 0.2134,0.05294 0.31653,0.09044 0.0634,0.02304 0.11693,0.06912 0.18088,0.09044 0.31849,0.106164 0.12487,-0.01109 0.36175,0.09044 0.062,0.02655 0.11829,0.0654 0.18088,0.09044 0.52414,0.209658 0.0524,0.0024 0.45219,0.135657 0.032,0.01066 0.0603,0.03015 0.0904,0.04522 0.21102,0.07537 0.42049,0.155236 0.63307,0.226097 0.0143,0.0048 0.0301,0 0.0452,0 0.0904,0.03014 0.1842,0.05172 0.27131,0.09044 0.0497,0.02207 0.0857,0.06903 0.13566,0.09044 0.0571,0.02447 0.12376,0.02074 0.18088,0.04522 0.0499,0.02141 0.0857,0.06903 0.13566,0.09044 0.0571,0.02447 0.12112,0.02815 0.18087,0.04522 0.0458,0.0131 0.0918,0.02643 0.13566,0.04522 0.062,0.02655 0.11951,0.06255 0.18088,0.09044 0.1045,0.0475 0.21386,0.08432 0.31653,0.135657 0.0486,0.02432 0.0857,0.06903 0.13566,0.09044 0.0571,0.02447 0.12192,0.02556 0.18088,0.04522 0.032,0.01066 0.0595,0.03194 0.0904,0.04522 0.0746,0.03198 0.15349,0.05414 0.22609,0.09044 0.1637,0.109135 0.0871,0.06613 0.2261,0.135659"
         id="path27" /><path
         style="fill:none;stroke:#000000;stroke-width:0.1;stroke-linecap:butt;stroke-linejoin:miter;stroke-opacity:1;stroke-dasharray:none"
         d="m 119.831,106.58176 c 1.76355,0.18088 3.54075,0.25855 5.29065,0.54263 0.58349,0.0947 1.11693,0.38763 1.67311,0.58785 0.19753,0.0711 0.39436,0.14463 0.58785,0.2261 0.18638,0.0785 0.35596,0.19353 0.54263,0.27131 0.8021,0.33421 -0.20357,-0.13067 0.49742,0.18088 0.0616,0.0274 0.11795,0.0662 0.18087,0.0904 0.17225,0.1371 0.39589,0.10889 0.58785,0.18087 0.0631,0.0237 0.11693,0.0691 0.18088,0.0904 0.0729,0.0243 0.15195,0.025 0.22609,0.0452 0.092,0.0251 0.18088,0.0603 0.27132,0.0904 0.13566,0.0302 0.2727,0.0546 0.40697,0.0904 0.0921,0.0246 0.17884,0.0673 0.27132,0.0904 0.089,0.0222 0.18368,0.0182 0.27131,0.0452 0.10972,0.0338 0.20996,0.093 0.31654,0.13566 0.0443,0.0177 0.0904,0.0301 0.13566,0.0452 0.13565,0.0452 0.2703,0.0936 0.40697,0.13566 0.2376,0.0731 0.4854,0.10944 0.72351,0.18088 0.12335,0.037 0.23731,0.10247 0.36175,0.13566 0.10299,0.0275 0.21314,0.0194 0.31654,0.0452 0.6755,0.16888 0.15702,0.0708 0.67829,0.27132 0.10241,0.0394 0.21567,0.0472 0.31653,0.0904 0.1117,0.0479 0.20641,0.12949 0.31653,0.18088 0.11671,0.0545 0.24657,0.0781 0.36176,0.13565 0.12719,0.0636 0.23181,0.16835 0.36175,0.2261 0.14381,0.0639 0.30654,0.0761 0.45219,0.13566 0.39546,0.16178 0.86861,0.46383 1.22092,0.67829 0.12147,0.0739 0.23782,0.15638 0.36176,0.22609 0.1175,0.0661 0.24117,0.12059 0.36175,0.18088 0.12059,0.0603 0.23902,0.12509 0.36176,0.18088 0.209,0.095 0.42925,0.16563 0.63306,0.27131 0.20426,0.10591 0.38505,0.25311 0.58786,0.36176 0.45343,0.24291 0.62096,0.29503 1.04004,0.45219 0.12058,0.0452 0.23866,0.0978 0.36175,0.13566 0.37738,0.15919 0.78634,0.20201 1.1757,0.31653 0.13719,0.0404 0.26881,0.0988 0.40698,0.13566 0.0886,0.0236 0.18286,0.0211 0.27131,0.0452 0.0783,0.0213 0.14965,0.0631 0.2261,0.0904 0.13466,0.0481 0.26919,0.0974 0.40697,0.13565 0.1339,0.0372 0.27071,0.0632 0.40697,0.0904 0.64514,0.12903 0.72562,0.15751 1.35658,0.18088 0.19582,0.007 0.39271,0.0177 0.58785,0 0.1384,-0.0126 0.2717,-0.0586 0.40697,-0.0904 0.23759,-0.0559 0.54629,-0.13076 0.76873,-0.2261 0.0808,-0.0346 0.1463,-0.0988 0.2261,-0.13565 0.11693,-0.054 0.25342,-0.066 0.36175,-0.13566 0.26975,-0.17341 0.34934,-0.43667 0.54263,-0.67829 0.35659,-0.44573 0.13076,-0.17843 0.40698,-0.31653 0.0486,-0.0243 0.0857,-0.069 0.13565,-0.0904 0.0571,-0.0245 0.12011,-0.0322 0.18088,-0.0452 0.1503,-0.0322 0.30146,-0.0603 0.45219,-0.0904"
         id="path28" /><path
         style="fill:none;stroke:#000000;stroke-width:0.1;stroke-linecap:butt;stroke-linejoin:miter;stroke-opacity:1;stroke-dasharray:none"
         d="m 116.66565,103.1451 c 5.16736,1.26033 -1.29408,-0.29486 3.57232,0.81394 0.62022,0.14132 1.23479,0.3065 1.85399,0.4522 0.14963,0.0352 0.30256,0.0552 0.45219,0.0904 0.10682,0.0251 0.21051,0.0622 0.31654,0.0904 0.12009,0.032 0.24224,0.0563 0.36175,0.0904 0.0917,0.0262 0.17728,0.0748 0.27132,0.0904 0.0892,0.0149 0.18087,0 0.27131,0 0.2261,0 0.45219,0 0.67829,0 0.0904,0 0.18102,-0.005 0.27132,0 0.287,0.016 0.61476,0.0491 0.90438,0.0904 0.19626,0.028 0.39344,0.0516 0.58785,0.0904 0.18282,0.0366 0.3626,0.0872 0.54263,0.13566 0.60188,0.16205 0.73921,0.21702 1.35658,0.40698 0.15041,0.0463 0.30213,0.0883 0.45219,0.13566 0.13636,0.0431 0.26979,0.0953 0.40697,0.13565 0.11925,0.0351 0.24077,0.062 0.36176,0.0904 0.13527,0.0318 0.27387,0.0505 0.40697,0.0904 0.16899,0.0507 0.32843,0.13018 0.49741,0.18088 0.13311,0.0399 0.27216,0.0567 0.40698,0.0904 1.48566,0.37142 -0.37312,-0.0835 0.90438,0.27132 0.1339,0.0372 0.2717,0.0586 0.40697,0.0904 0.121,0.0285 0.24117,0.0603 0.36176,0.0904 0.12058,0.0301 0.24384,0.0511 0.36175,0.0904 0.15401,0.0513 0.29578,0.13742 0.45219,0.18087 0.1171,0.0325 0.24117,0.0301 0.36176,0.0452 0.18088,0.0452 0.36506,0.0788 0.54263,0.13566 0.19996,0.064 0.38956,0.15713 0.58785,0.2261 0.14863,0.0517 0.30213,0.0883 0.45219,0.13565 1.27178,0.42393 -0.31427,-0.0982 0.72351,0.2261 0.13649,0.0427 0.27001,0.0946 0.40698,0.13566 0.16461,0.0494 0.33182,0.0897 0.49741,0.13566 0.10573,0.0294 0.20923,0.0674 0.31653,0.0904 0.10422,0.0223 0.21384,0.0167 0.31654,0.0452 1.40781,0.39106 0.016,0.0305 0.67828,0.27132 0.1014,0.24407 0.27387,0.0505 0.40698,0.0904 0.12335,0.037 0.23866,0.0978 0.36175,0.13565 0.0735,0.0226 0.15121,0.0279 0.2261,0.0452 0.12111,0.028 0.24021,0.0644 0.36175,0.0904 0.0897,0.0192 0.18237,0.023 0.27132,0.0452 0.0925,0.0231 0.17883,0.0673 0.27131,0.0904 0.20937,0.0523 0.4237,0.0833 0.63307,0.13566 0.0925,0.0231 0.1802,0.0624 0.27132,0.0904 0.10488,0.0323 0.21066,0.0616 0.31653,0.0904 0.06,0.0164 0.12376,0.0207 0.18088,0.0452 0.05,0.0214 0.0836,0.0748 0.13566,0.0904 0.10209,0.0306 0.21636,0.009 0.31653,0.0452 0.0708,0.0258 0.11227,0.10447 0.18088,0.13566 0.0999,0.0454 0.2134,0.0529 0.31653,0.0904 0.0634,0.023 0.11796,0.0662 0.18088,0.0904 0.17388,0.13267 0.39518,0.11081 0.58785,0.18087 0.16696,0.0607 0.40461,0.19278 0.58785,0.2261 0.0742,0.0135 0.15119,-0.008 0.2261,0 0.16254,0.0181 0.24996,0.0833 0.40697,0.13566 0.15755,0.0525 0.28521,0.057 0.45219,0.0904 0.0609,0.0122 0.11921,0.0375 0.18088,0.0452 0.0598,0.007 0.12095,-0.007 0.18088,0 0.0764,0.008 0.15106,0.0285 0.22609,0.0452 0.0607,0.0135 0.11889,0.0408 0.18088,0.0452 0.15035,0.0107 0.30146,0 0.45219,0 0.13566,0 0.27132,0 0.40697,0 0.0603,0 0.12105,-0.007 0.18088,0 0.0617,0.008 0.11958,0.035 0.18088,0.0452 0.0297,0.005 0.0603,0 0.0904,0 0.0603,0 0.12058,0 0.18087,0"
         id="path29" /></g></g></svg>
